# xmcd CD database file
#
# Track frame offsets:
#	150
#	15274
#	33034
#	49951
#	72070
#	90476
#	107526
#	121571
#	144030
#	162608
#	175362
#
# Disc length: 2538 seconds
#
# Revision: 2
# Processed by: cddbd v1.5.2PL0 Copyright (c) Steve Scherf et al.
# Submitted via: CDex 1.79
#
DISCID=7a09e80b
DTITLE=SUZIE CANDELL - CALIFORNIA STREETS
DYEAR=2015
DGENRE=Country
TTITLE0=LOOK AT ME NOW
TTITLE1=HOLD ON
TTITLE2=LOVE THE FIRE (HATE THE BURN)
TTITLE3=SLEEPING ALONE TONIGHT
TTITLE4=LIGHTNING STRIKE ME DOWN
TTITLE5=HERE WITH ME
TTITLE6=TAKE THE BLAME
TTITLE7=HEY TROUBLE
TTITLE8=A WOMAN CAN CHANGE HER MIND
TTITLE9=NASHVILLE SKY
TTITLE10=LOVER TAKE ALL (WITH SHAWN JONES)
EXTD=YEAR: 2015
EXTT0=
EXTT1=
EXTT2=
EXTT3=
EXTT4=
EXTT5=
EXTT6=
EXTT7=
EXTT8=
EXTT9=
EXTT10=
PLAYORDER=
